<svg width="145" height="37" viewBox="0 0 145 37" fill="none" xmlns="http://www.w3.org/2000/svg">
<path d="M12.282 36C11.532 36 11.032 35.85 11.032 35.2C11.032 34.3 12.782 34.25 12.782 32.45L12.882 7.25C12.882 6.35 12.682 5.85 11.482 5.85L5.03203 5.8C2.13203 5.8 2.68203 7.15 1.73203 7.15C1.08203 7.15 0.832031 6.75 0.832031 5.3V2.15C0.832031 1.3 1.23203 0.999998 2.13203 0.999998H28.882C29.582 0.999998 30.082 1.3 30.082 2.05V4.85C30.082 6.75 29.782 7.35 29.132 7.35C28.132 7.35 28.582 5.85 26.632 5.85H20.232C19.332 5.85 18.932 6.25 18.932 7.2L18.882 32.5C18.882 34.4 20.582 34.2 20.582 35.1C20.582 35.85 20.132 36 19.382 36H12.282ZM47.8055 36.6C39.3555 36.6 36.1555 33.5 35.4055 32.95C33.8555 31.85 33.3055 33.05 32.5555 32.5C31.8055 31.95 32.4055 31.1 33.0555 30.2L35.3055 27.1C35.9555 26.2 36.7555 25.45 37.4055 25.95C38.0055 26.4 37.1055 27.25 38.2555 28.35C38.7555 28.85 40.5055 31.2 47.8055 31.2C52.2055 31.2 55.9555 30.2 55.9555 25.95C55.9555 17.65 33.6055 24.9 33.2555 10.3C33.1055 3.85 38.3555 0.199999 47.8055 0.199999C54.2555 0.199999 57.3555 2.35 58.0055 2.75C59.8555 3.8 60.1555 2.35 61.0055 3C61.6555 3.5 61.3055 4.2 60.7555 5.05L58.2055 9C57.6555 9.85 57.3555 10.4 56.5555 10C55.7555 9.6 56.9055 8.35 54.5055 7C54.1555 6.8 52.3555 5.45 47.8055 5.45C43.0555 5.45 38.8555 6.3 38.8555 10.3C38.8555 18.45 61.7555 11.2 61.7555 25.95C61.7555 33.5 55.6055 36.6 47.8055 36.6ZM68.0098 36C66.9598 36 66.2598 35.95 66.2598 35.1C66.2598 34.25 68.0598 34.1 68.0598 31.7V5C68.0598 2.4 66.6098 2.65 66.6098 1.75C66.6098 0.999998 67.6098 0.999998 68.1598 0.999998H73.6598C74.0098 0.999998 75.4098 0.85 75.4098 1.75C75.4098 2.55 73.6098 2.35 73.6098 5V31.7C73.6098 34.35 75.4598 34.2 75.4598 35.3C75.4598 36 74.0098 36 73.6598 36H68.0098ZM97.507 36.7C87.857 36.7 82.657 30.7 82.607 20.75L82.507 4.75C82.507 2.4 80.957 2.95 80.957 1.85C80.957 1.1 81.557 0.999998 82.507 0.999998H88.307C89.457 0.999998 90.007 1.1 90.007 1.9C90.007 2.9 88.257 2.25 88.257 4.85V20.75C88.257 26.4 90.807 31.7 97.507 31.7C104.007 31.7 106.507 26.35 106.507 20.9V5C106.507 2.15 104.957 2.85 104.957 1.9C104.957 0.999998 105.657 0.999998 106.557 0.999998H111.957C112.907 0.999998 113.507 1.1 113.507 2C113.507 2.8 112.057 2.45 112.057 5V20.75C112.057 30.65 107.357 36.7 97.507 36.7ZM120.794 36C119.644 36 118.994 35.95 118.994 35.2C118.994 33.9 120.894 34.5 120.894 32.15V4.95C120.894 1.95 119.094 2.85 119.094 1.85C119.094 1.25 119.694 0.999998 120.794 0.999998H126.394C127.494 0.999998 128.244 1.1 128.244 1.85C128.244 2.65 126.594 2.45 126.594 4.7V29.8C126.594 30.9 126.994 31 127.594 31H141.044C143.044 31 143.394 29.7 144.394 30.3C144.794 30.55 144.644 31.55 144.394 31.95L142.294 35.3C141.894 35.95 141.494 36 141.044 36H120.794Z" fill="#212121"/>
</svg>
